#define marker.xbm_width 15
#define marker.xbm_height 15
static unsigned char marker.xbm_bits[] = {
   0x00, 0x00, 0x00, 0x00, 0x00, 0x00, 0x80, 0x00, 0x80, 0x00, 0x80, 0x00,
   0xc0, 0x01, 0xf8, 0x0f, 0xc0, 0x01, 0x80, 0x00, 0x80, 0x00, 0x80, 0x00,
   0x00, 0x00, 0x00, 0x00, 0x00, 0x00};
