#define sub_width 70
#define sub_height 30
static unsigned char sub_bits[] = {
   0x00, 0x00, 0x00, 0x00, 0x00, 0x00, 0x00, 0x00, 0x00, 0x00, 0x00, 0x00,
   0x00, 0x00, 0x00, 0x00, 0x00, 0x00, 0x00, 0x00, 0x00, 0x00, 0x00, 0x00,
   0x00, 0x00, 0x00, 0x00, 0x00, 0x00, 0x00, 0x03, 0x00, 0x00, 0x00, 0x00,
   0x00, 0x00, 0x00, 0x00, 0x03, 0x00, 0x00, 0x00, 0x00, 0x00, 0x00, 0x00,
   0x00, 0x03, 0x00, 0x00, 0x00, 0x00, 0x00, 0x00, 0x00, 0x00, 0x03, 0x00,
   0x00, 0x00, 0x00, 0x00, 0x00, 0x00, 0xc0, 0x07, 0x00, 0x00, 0x00, 0x00,
   0x00, 0x00, 0x00, 0xf0, 0x1f, 0x00, 0x00, 0x00, 0x00, 0x00, 0x00, 0x00,
   0xf0, 0x3f, 0x00, 0x00, 0x00, 0x00, 0x00, 0x00, 0x00, 0xf0, 0x3f, 0x00,
   0x00, 0x00, 0x00, 0x00, 0x00, 0x00, 0xf8, 0x3f, 0x00, 0x00, 0x00, 0x00,
   0x00, 0x00, 0x00, 0xf8, 0x3f, 0x00, 0x00, 0x00, 0x00, 0x00, 0x00, 0x00,
   0xf8, 0x3f, 0x00, 0x00, 0x00, 0x00, 0x00, 0x00, 0x00, 0xf8, 0x3f, 0x00,
   0x00, 0x00, 0x00, 0x00, 0x00, 0x00, 0xf8, 0xff, 0x01, 0x00, 0x00, 0x00,
   0x00, 0xff, 0xff, 0xff, 0xff, 0xff, 0xff, 0x00, 0x00, 0x80, 0x7e, 0x7e,
   0x02, 0xf0, 0x7f, 0xff, 0x03, 0x00, 0x80, 0x01, 0x00, 0x00, 0x00, 0x00,
   0xf0, 0x07, 0x00, 0xc0, 0x79, 0x00, 0x00, 0x80, 0x40, 0x40, 0x07, 0x00,
   0x60, 0xf8, 0xff, 0x01, 0xc0, 0x0f, 0x38, 0x0c, 0x00, 0xe0, 0xf8, 0x82,
   0x9f, 0x3f, 0x38, 0x38, 0x1c, 0x00, 0xe0, 0x79, 0x00, 0xfc, 0x03, 0xe0,
   0x3f, 0x1c, 0x00, 0xc0, 0x03, 0x00, 0x00, 0x00, 0x00, 0x00, 0x1c, 0x00,
   0xc0, 0x07, 0x00, 0xf0, 0x3f, 0x00, 0x00, 0x0e, 0x00, 0x80, 0xff, 0x7f,
   0xfc, 0xff, 0x03, 0x80, 0x0f, 0x00, 0x80, 0xff, 0xff, 0xff, 0xff, 0xff,
   0xff, 0x05, 0x00, 0x00, 0xc0, 0xff, 0xff, 0xff, 0xff, 0xff, 0x03, 0x00,
   0x00, 0x00, 0x00, 0x00, 0x00, 0x00, 0x00, 0x00, 0x00, 0x00, 0x00, 0x00,
   0x00, 0x00, 0x00, 0x00, 0x00, 0x00};
